<?xml version="1.0" encoding="UTF-8" standalone="no"?>
<svg
   xmlns:dc="http://purl.org/dc/elements/1.1/"
   xmlns:cc="http://creativecommons.org/ns#"
   xmlns:rdf="http://www.w3.org/1999/02/22-rdf-syntax-ns#"
   xmlns:svg="http://www.w3.org/2000/svg"
   xmlns="http://www.w3.org/2000/svg"
   xmlns:sodipodi="http://sodipodi.sourceforge.net/DTD/sodipodi-0.dtd"
   xmlns:inkscape="http://www.inkscape.org/namespaces/inkscape"
   version="1.1"
   id="svg29"
   xml:space="preserve"
   width="510.23569"
   height="1122.5195"
   viewBox="0 0 510.23569 1122.5195"
   sodipodi:docname="DOMjudgelogo-blue-bg.svg"
   inkscape:version="1.0.2 (e86c870879, 2021-01-15)"
   inkscape:export-filename="/home/parallels/domjudge/doc/logos/DOMjudgelogo.png"
   inkscape:export-xdpi="96"
   inkscape:export-ydpi="96"><metadata
     id="metadata35"><rdf:RDF><cc:Work
         rdf:about=""><dc:format>image/svg+xml</dc:format><dc:type
           rdf:resource="http://purl.org/dc/dcmitype/StillImage" /><dc:title /></cc:Work></rdf:RDF></metadata><defs
     id="defs33"><meshgradient
       inkscape:collect="always"
       id="meshgradient892"
       gradientUnits="userSpaceOnUse"
       x="-44.912003"
       y="-57.543476"><meshrow
         id="meshrow894"><meshpatch
           id="meshpatch896"><stop
             path="c 199.778,0  399.555,0  599.333,0"
             style="stop-color:#ffffff;stop-opacity:1"
             id="stop898" /><stop
             path="c 0,389.402  0,778.803  0,1168.21"
             style="stop-color:#000080;stop-opacity:1"
             id="stop900" /><stop
             path="c -199.778,0  -399.555,0  -599.333,0"
             style="stop-color:#ffffff;stop-opacity:1"
             id="stop902" /><stop
             path="c 0,-389.402  0,-778.803  0,-1168.21"
             style="stop-color:#000080;stop-opacity:1"
             id="stop904" /></meshpatch></meshrow></meshgradient></defs><sodipodi:namedview
     pagecolor="#ffffff"
     bordercolor="#666666"
     borderopacity="1"
     objecttolerance="10"
     gridtolerance="10"
     guidetolerance="10"
     inkscape:pageopacity="0"
     inkscape:pageshadow="2"
     inkscape:window-width="1691"
     inkscape:window-height="2122"
     id="namedview31"
     showgrid="false"
     inkscape:pagecheckerboard="true"
     showborder="false"
     inkscape:zoom="1.6369738"
     inkscape:cx="249.6039"
     inkscape:cy="449.74632"
     inkscape:window-x="2148"
     inkscape:window-y="0"
     inkscape:window-maximized="0"
     inkscape:current-layer="layer2"
     inkscape:document-rotation="0" /><g
     inkscape:groupmode="layer"
     id="layer2"
     inkscape:label="background 2"><rect
       style="fill:#ffffff;fill-opacity:1;stroke:#ffffff;stroke-width:2.667;stroke-linecap:round;stroke-linejoin:round;stroke-miterlimit:10;stroke-dasharray:none;stroke-opacity:1"
       id="rect2307"
       width="580.2326"
       height="1152.5531"
       x="-36.655342"
       y="-55.374119"
       ry="0" /></g><g
     inkscape:groupmode="layer"
     id="layer1"
     inkscape:label="background"><rect
       style="fill:#000080;stroke:url(#meshgradient892);stroke-width:2;stroke-linecap:round;stroke-linejoin:round;stroke-miterlimit:4;stroke-dasharray:none"
       id="rect45"
       width="539.40424"
       height="1111.5742"
       x="-16.774086"
       y="-37.688171" /></g><g
     id="g37"
     inkscape:groupmode="layer"
     inkscape:label="DOMjudgelogo"
     transform="matrix(1.3333333,0,0,-1.3333333,-142.66667,1122.5195)"><text
   transform="matrix(-0.00528445,0.99706308,0.99998604,0.00519989,463.70996,56.28613)"
   style="font-variant:normal;font-weight:bold;font-size:201.631px;font-family:Verdana, 'Bitstream Vera Sans', 'DejaVu Sans', Tahoma, Geneva, Arial, sans-serif;-inkscape-font-specification:Verdana-Bold;writing-mode:lr-tb;fill:#c1c4cb;fill-opacity:1;fill-rule:nonzero;stroke:none"
   id="text41"
   y="0"><tspan
     x="0 167.35382 338.74026"
     y="0"
     sodipodi:role="line"
     id="tspan39">DOM</tspan></text>
<text
   transform="matrix(-0.00528445,0.99706308,0.99998604,0.00519989,457.20703,62.77148)"
   style="font-variant:normal;font-weight:bold;font-size:201.631px;font-family:Verdana, 'Bitstream Vera Sans', 'DejaVu Sans', Tahoma, Geneva, Arial, sans-serif;-inkscape-font-specification:Verdana-Bold;writing-mode:lr-tb;fill:#ffffff;fill-opacity:1;fill-rule:nonzero;stroke:none;"
   id="text45"
   y="0"><tspan
     x="0 167.35382 338.74026"
     y="0"
     sodipodi:role="line"
     id="tspan43">DOM</tspan></text>
<text
   transform="matrix(-0.00528428,0.99706295,0.99998604,0.00519996,364.29102,585.38135)"
   style="font-style:italic;font-variant:normal;font-weight:bold;font-size:71.4005px;font-family:Verdana, 'Bitstream Vera Sans', 'DejaVu Sans', Tahoma, Geneva, Arial, sans-serif;-inkscape-font-specification:Verdana-BoldItalic;writing-mode:lr-tb;fill:#c1c4cb;fill-opacity:1;fill-rule:nonzero;stroke:none"
   id="text49"
   y="0"><tspan
     x="0 28.774397 79.611542 129.52048 179.42943"
     y="0"
     sodipodi:role="line"
     id="tspan47">judge</tspan></text>
<text
   transform="matrix(-0.00528428,0.99706295,0.99998604,0.00519996,361.98633,587.67822)"
   style="font-style:italic;font-variant:normal;font-weight:bold;font-size:71.4005px;font-family:Verdana, 'Bitstream Vera Sans', 'DejaVu Sans', Tahoma, Geneva, Arial, sans-serif;-inkscape-font-specification:Verdana-BoldItalic;writing-mode:lr-tb;fill:#676e72;fill-opacity:1;fill-rule:nonzero;stroke:none"
   id="text53"
   y="0"><tspan
     x="0 28.774397 79.611542 129.52048 179.42943"
     y="0"
     sodipodi:role="line"
     id="tspan51">judge</tspan></text>
<path
   d="M 212.91504,836.43604 187.46143,771.91748 H 168.37061 V 587.12256 H 153.25732 V 383.20996 H 136.5542 V 83.7168 h 89.8833"
   style="fill:none;stroke:#231f20;stroke-width:1.65658998;stroke-linecap:butt;stroke-linejoin:round;stroke-miterlimit:10;stroke-dasharray:none;stroke-opacity:1"
   id="path55"
   inkscape:connector-curvature="0" /><path
   d="m 212.91504,836.43604 25.45459,-64.51856 h 19.08984 V 587.12256 h 15.90821 v -203.9126 h 15.9082 V 83.7168 h -89.88233"
   style="fill:none;stroke:#231f20;stroke-width:1.65658998;stroke-linecap:butt;stroke-linejoin:round;stroke-miterlimit:10;stroke-dasharray:none;stroke-opacity:1"
   id="path57"
   inkscape:connector-curvature="0" /><path
   d="M 212.91504,836.43604 187.46143,771.91748 H 168.37061 V 587.12256 H 153.25732 V 383.20996 H 136.5542 V 83.7168 h 89.8833"
   style="fill:none;stroke:#ffffff;stroke-width:2.00025005;stroke-linecap:butt;stroke-linejoin:round;stroke-miterlimit:10;stroke-dasharray:none;stroke-opacity:1"
   id="path59"
   inkscape:connector-curvature="0" /><path
   d="m 212.91504,836.43604 25.45459,-64.51856 h 19.08984 V 587.12256 h 15.90821 v -203.9126 h 15.9082 V 83.7168 h -89.88233"
   style="fill:none;stroke:#fffffb;stroke-width:2;stroke-linecap:butt;stroke-linejoin:round;stroke-miterlimit:10;stroke-dasharray:none;stroke-opacity:1"
   id="path61"
   inkscape:connector-curvature="0" /><text
   transform="matrix(0.99862206,0,0,-1,196.21094,772.71338)"
   style="font-variant:normal;font-weight:bold;font-size:29.4716px;font-family:Courier;-inkscape-font-specification:CourierNewPS-BoldMT;writing-mode:lr-tb;fill:#c1c4cb;fill-opacity:1;fill-rule:nonzero;stroke:none"
   id="text65"><tspan
     x="0"
     y="0"
     id="tspan63">/</tspan></text>
<text
   transform="matrix(0.99862206,0,0,-1,195.41504,773.50928)"
   style="font-variant:normal;font-weight:bold;font-size:29.4716px;font-family:Courier;-inkscape-font-specification:CourierNewPS-BoldMT;writing-mode:lr-tb;fill:#ffffff;fill-opacity:1;fill-rule:nonzero;stroke:none;"
   id="text69"><tspan
     x="0"
     y="0"
     id="tspan67"
     style="fill:#ffffff;">/</tspan></text>
<text
   transform="matrix(0.99862206,0,0,-1,213.71094,772.71338)"
   style="font-variant:normal;font-weight:bold;font-size:29.4716px;font-family:Courier;-inkscape-font-specification:CourierNewPS-BoldMT;writing-mode:lr-tb;fill:#c1c4cb;fill-opacity:1;fill-rule:nonzero;stroke:none"
   id="text73"><tspan
     x="0"
     y="0"
     id="tspan71">\</tspan></text>
<text
   transform="matrix(0.99862206,0,0,-1,212.91504,773.50928)"
   style="font-variant:normal;font-weight:bold;font-size:29.4716px;font-family:Courier;-inkscape-font-specification:CourierNewPS-BoldMT;writing-mode:lr-tb;fill:#ffffff;fill-opacity:1;fill-rule:nonzero;stroke:none;"
   id="text77"><tspan
     x="0"
     y="0"
     id="tspan75"
     style="fill:#ffffff;">\</tspan></text>
<path
   d="m 216.26563,587.27588 v 51.16846 c 0,30.1582 0.72656,59.14355 2.1875,86.96533 1.45312,27.81201 3.54687,41.72314 6.27343,41.72314 1.5625,0 2.88282,-4.10156 3.96875,-12.28418 1.07813,-8.18261 2.10938,-23.38525 3.09375,-45.58789 0.98438,-22.20263 1.47657,-45.81445 1.47657,-70.8164 v -51.16846 m -4,0.0195 v 51.12842 c 0,25.28857 -0.57813,47.40234 -1.73438,66.34131 -0.65625,10.45068 -1.58594,15.67578 -2.77344,15.67578 -1.15625,0 -2.10156,-5.75781 -2.83593,-17.26319 -1.10938,-17.43066 -1.65625,-39.01171 -1.65625,-64.7539 v -51.12842"
   style="fill:#ffffff;fill-opacity:1;fill-rule:nonzero;stroke:none"
   id="path79"
   inkscape:connector-curvature="0" /><path
   d="m 246.91309,587.46582 v 136.56641 l -3.44532,-7.69141 c -0.55468,-1.2832 -0.96875,-1.92139 -1.24218,-1.92139 -0.5,0 -0.92188,1.65088 -1.28125,4.96582 -0.35938,3.3086 -0.53125,7.36621 -0.53125,12.17237 0,4.37695 0.13281,7.81689 0.39843,10.32763 0.26563,2.51075 0.82813,4.72315 1.67969,6.65137 l 8.42188,18.26221 V 587.46582"
   style="fill:#ffffff;fill-opacity:1;fill-rule:nonzero;stroke:none"
   id="path81"
   inkscape:connector-curvature="0" /><path
   d="m 189.26563,586.81006 v 51.32666 c 0,30.25146 0.72656,59.32666 2.1875,87.23486 1.45312,27.89795 3.54687,41.85205 6.27343,41.85205 1.5625,0 2.88282,-4.11425 3.96875,-12.32226 1.07813,-8.20801 2.10938,-23.45752 3.09375,-45.72901 0.98438,-22.27099 1.47657,-45.95605 1.47657,-71.03564 v -51.32666 m -4,0.0195 v 51.28662 c 0,25.36719 -0.57813,47.54883 -1.73438,66.54688 -0.65625,10.48242 -1.58594,15.72412 -2.77344,15.72412 -1.15625,0 -2.10156,-5.77588 -2.83593,-17.3169 -1.10938,-17.48437 -1.65625,-39.13183 -1.65625,-64.9541 v -51.28662"
   style="fill:#ffffff;fill-opacity:1;fill-rule:nonzero;stroke:none"
   id="path83"
   inkscape:connector-curvature="0" /><path
   d="m 176.91309,587.46582 v 136.56641 l -3.44532,-7.69141 c -0.55468,-1.2832 -0.96875,-1.92139 -1.24218,-1.92139 -0.5,0 -0.92188,1.65088 -1.28125,4.96582 -0.35938,3.3086 -0.53125,7.36621 -0.53125,12.17237 0,4.37695 0.13281,7.81689 0.39843,10.32763 0.26563,2.51075 0.82813,4.72315 1.67969,6.65137 l 8.42188,18.26221 V 587.46582"
   style="fill:#ffffff;fill-opacity:1;fill-rule:nonzero;stroke:none"
   id="path85"
   inkscape:connector-curvature="0" /><path
   d="M 259.06738,383.58789 V 529.7998 l -3.44531,-8.23437 c -0.55469,-1.37402 -0.96875,-2.05713 -1.24219,-2.05713 -0.5,0 -0.92187,1.76758 -1.28125,5.31641 -0.35937,3.54248 -0.53125,7.88672 -0.53125,13.03222 0,4.68604 0.13282,8.36914 0.39844,11.05713 0.26563,2.68799 0.82813,5.05664 1.67969,7.1211 l 8.42187,19.55224 V 383.58789"
   style="fill:#ffffff;fill-opacity:1;fill-rule:nonzero;stroke:none"
   id="path87"
   inkscape:connector-curvature="0" /><path
   d="m 229.93213,383.27539 v 54.77197 c 0,32.28223 0.72656,63.30909 2.1875,93.09034 1.45312,29.7705 3.54687,44.66162 6.27344,44.66162 1.5625,0 2.88281,-4.39063 3.96875,-13.14942 1.07812,-8.75879 2.10937,-25.03222 3.09375,-48.79834 0.98437,-23.7666 1.47656,-49.04101 1.47656,-75.8042 v -54.77197 m -4,0.0205 v 54.72949 c 0,27.06982 -0.57813,50.74121 -1.73438,71.01367 -0.65625,11.18701 -1.58593,16.77979 -2.77343,16.77979 -1.15625,0 -2.10157,-6.16309 -2.83594,-18.47901 -1.10938,-18.6582 -1.65625,-41.75927 -1.65625,-69.31445 v -54.72949"
   style="fill:#ffffff;fill-opacity:1;fill-rule:nonzero;stroke:none"
   id="path89"
   inkscape:connector-curvature="0" /><path
   d="m 203.93213,383.27539 v 54.77197 c 0,32.28223 0.72656,63.30909 2.1875,93.09034 1.45312,29.7705 3.54687,44.66162 6.27344,44.66162 1.5625,0 2.88281,-4.39063 3.96875,-13.14942 1.07812,-8.75879 2.10937,-25.03222 3.09375,-48.79834 0.98437,-23.7666 1.47656,-49.04101 1.47656,-75.8042 v -54.77197 m -4,0.0205 v 54.72949 c 0,27.06982 -0.57813,50.74121 -1.73438,71.01367 -0.65625,11.18701 -1.58593,16.77979 -2.77343,16.77979 -1.15625,0 -2.10157,-6.16309 -2.83594,-18.47901 -1.10938,-18.6582 -1.65625,-41.75927 -1.65625,-69.31445 v -54.72949"
   style="fill:#ffffff;fill-opacity:1;fill-rule:nonzero;stroke:none"
   id="path91"
   inkscape:connector-curvature="0" /><path
   d="m 176.93213,383.27539 v 54.77197 c 0,32.28223 0.72656,63.30909 2.1875,93.09034 1.45312,29.7705 3.54687,44.66162 6.27344,44.66162 1.5625,0 2.88281,-4.39063 3.96875,-13.14942 1.07812,-8.75879 2.10937,-25.03222 3.09375,-48.79834 0.98437,-23.7666 1.47656,-49.04101 1.47656,-75.8042 v -54.77197 m -4,0.0205 v 54.72949 c 0,27.06982 -0.57813,50.74121 -1.73438,71.01367 -0.65625,11.18701 -1.58593,16.77979 -2.77343,16.77979 -1.15625,0 -2.10157,-6.16309 -2.83594,-18.47901 -1.10938,-18.6582 -1.65625,-41.75927 -1.65625,-69.31445 v -54.72949"
   style="fill:#ffffff;fill-opacity:1;fill-rule:nonzero;stroke:none"
   id="path93"
   inkscape:connector-curvature="0" /><path
   d="M 165.06738,383.58789 V 529.7998 l -3.44531,-8.23437 c -0.55469,-1.37402 -0.96875,-2.05713 -1.24219,-2.05713 -0.5,0 -0.92187,1.76758 -1.28125,5.31641 -0.35937,3.54248 -0.53125,7.88672 -0.53125,13.03222 0,4.68604 0.13282,8.36914 0.39844,11.05713 0.26563,2.68799 0.82813,5.05664 1.67969,7.1211 l 8.42187,19.55224 V 383.58789"
   style="fill:#ffffff;fill-opacity:1;fill-rule:nonzero;stroke:none"
   id="path95"
   inkscape:connector-curvature="0" /><path
   d="m 274.71484,83.88965 v 223.32519 l -3.44531,-12.57714 c -0.55469,-2.09961 -0.96875,-3.14356 -1.24219,-3.14356 -0.5,0 -0.92187,2.7002 -1.28125,8.12012 -0.35937,5.41211 -0.53125,12.04687 -0.53125,19.90722 0,7.15723 0.13282,12.78321 0.39844,16.8877 0.26563,4.10547 0.82813,7.72363 1.67969,10.87695 l 8.42187,29.86524 V 83.88965"
   style="fill:#ffffff;fill-opacity:1;fill-rule:nonzero;stroke:none"
   id="path97"
   inkscape:connector-curvature="0" /><path
   d="m 243.59912,83.27539 v 83.79102 c 0,49.38379 0.72656,96.84961 2.1875,142.40918 1.45313,45.54296 3.54688,68.32421 6.27344,68.32421 1.5625,0 2.88281,-6.71679 3.96875,-20.11718 1.07812,-13.39844 2.10937,-38.29297 3.09375,-74.65137 0.98437,-36.3584 1.47656,-75.02344 1.47656,-115.96484 V 83.27539 m -4,0.03125 v 83.72559 c 0,41.41015 -0.57812,77.62402 -1.73437,108.63672 -0.65625,17.11328 -1.58594,25.67089 -2.77344,25.67089 -1.15625,0 -2.10156,-9.42968 -2.83594,-28.2705 -1.10937,-28.54297 -1.65625,-63.88282 -1.65625,-106.03711 V 83.30664"
   style="fill:#ffffff;fill-opacity:1;fill-rule:nonzero;stroke:none"
   id="path99"
   inkscape:connector-curvature="0" /><path
   d="m 216.59912,83.27539 v 83.79102 c 0,49.38379 0.72656,96.84961 2.1875,142.40918 1.45313,45.54296 3.54688,68.32421 6.27344,68.32421 1.5625,0 2.88281,-6.71679 3.96875,-20.11718 1.07812,-13.39844 2.10937,-38.29297 3.09375,-74.65137 0.98437,-36.3584 1.47656,-75.02344 1.47656,-115.96484 V 83.27539 m -4,0.03125 v 83.72559 c 0,41.41015 -0.57812,77.62402 -1.73437,108.63672 -0.65625,17.11328 -1.58594,25.67089 -2.77344,25.67089 -1.15625,0 -2.10156,-9.42968 -2.83594,-28.2705 -1.10937,-28.54297 -1.65625,-63.88282 -1.65625,-106.03711 V 83.30664"
   style="fill:#ffffff;fill-opacity:1;fill-rule:nonzero;stroke:none"
   id="path101"
   inkscape:connector-curvature="0" /><path
   d="m 190.59912,83.27539 v 83.79102 c 0,49.38379 0.72656,96.84961 2.1875,142.40918 1.45313,45.54296 3.54688,68.32421 6.27344,68.32421 1.5625,0 2.88281,-6.71679 3.96875,-20.11718 1.07812,-13.39844 2.10937,-38.29297 3.09375,-74.65137 0.98437,-36.3584 1.47656,-75.02344 1.47656,-115.96484 V 83.27539 m -4,0.03125 v 83.72559 c 0,41.41015 -0.57812,77.62402 -1.73437,108.63672 -0.65625,17.11328 -1.58594,25.67089 -2.77344,25.67089 -1.15625,0 -2.10156,-9.42968 -2.83594,-28.2705 -1.10937,-28.54297 -1.65625,-63.88282 -1.65625,-106.03711 V 83.30664"
   style="fill:#ffffff;fill-opacity:1;fill-rule:nonzero;stroke:none"
   id="path103"
   inkscape:connector-curvature="0" /><path
   d="m 164.59912,83.27539 v 83.79102 c 0,49.38379 0.72656,96.84961 2.1875,142.40918 1.45313,45.54296 3.54688,68.32421 6.27344,68.32421 1.5625,0 2.88281,-6.71679 3.96875,-20.11718 1.07812,-13.39844 2.10937,-38.29297 3.09375,-74.65137 0.98437,-36.3584 1.47656,-75.02344 1.47656,-115.96484 V 83.27539 m -4,0.03125 v 83.72559 c 0,41.41015 -0.57812,77.62402 -1.73437,108.63672 -0.65625,17.11328 -1.58594,25.67089 -2.77344,25.67089 -1.15625,0 -2.10156,-9.42968 -2.83594,-28.2705 -1.10937,-28.54297 -1.65625,-63.88282 -1.65625,-106.03711 V 83.30664"
   style="fill:#ffffff;fill-opacity:1;fill-rule:nonzero;stroke:none"
   id="path105"
   inkscape:connector-curvature="0" /><path
   d="m 149.71484,83.88965 v 223.32519 l -3.44531,-12.57714 c -0.55469,-2.09961 -0.96875,-3.14356 -1.24219,-3.14356 -0.5,0 -0.92187,2.7002 -1.28125,8.12012 -0.35937,5.41211 -0.53125,12.04687 -0.53125,19.90722 0,7.15723 0.13282,12.78321 0.39844,16.8877 0.26563,4.10547 0.82813,7.72363 1.67969,10.87695 l 8.42187,29.86524 V 83.88965"
   style="fill:#ffffff;fill-opacity:1;fill-rule:nonzero;stroke:none"
   id="path107"
   inkscape:connector-curvature="0" /><path
   d="m 162.6665,587.22314 h 98.59131"
   style="fill:#231f20;fill-opacity:1;fill-rule:nonzero;stroke:#fffffc;stroke-width:1.65998995;stroke-linecap:butt;stroke-linejoin:miter;stroke-miterlimit:4;stroke-dasharray:none;stroke-opacity:1"
   id="path109"
   inkscape:connector-curvature="0" /><path
   d="m 146.6665,383.22363 h 135"
   style="fill:#231f20;fill-opacity:1;fill-rule:nonzero;stroke:#ffffff;stroke-width:2;stroke-linecap:butt;stroke-linejoin:miter;stroke-miterlimit:4;stroke-dasharray:none;stroke-opacity:1"
   id="path111"
   inkscape:connector-curvature="0" /></g><script
     id="mesh_polyfill"
     type="text/javascript">
!function(){const t=&quot;http://www.w3.org/2000/svg&quot;,e=&quot;http://www.w3.org/1999/xlink&quot;,s=&quot;http://www.w3.org/1999/xhtml&quot;,r=2;if(document.createElementNS(t,&quot;meshgradient&quot;).x)return;const n=(t,e,s,r)=&gt;{let n=new x(.5*(e.x+s.x),.5*(e.y+s.y)),o=new x(.5*(t.x+e.x),.5*(t.y+e.y)),i=new x(.5*(s.x+r.x),.5*(s.y+r.y)),a=new x(.5*(n.x+o.x),.5*(n.y+o.y)),h=new x(.5*(n.x+i.x),.5*(n.y+i.y)),l=new x(.5*(a.x+h.x),.5*(a.y+h.y));return[[t,o,a,l],[l,h,i,r]]},o=t=&gt;{let e=t[0].distSquared(t[1]),s=t[2].distSquared(t[3]),r=.25*t[0].distSquared(t[2]),n=.25*t[1].distSquared(t[3]),o=e&gt;s?e:s,i=r&gt;n?r:n;return 18*(o&gt;i?o:i)},i=(t,e)=&gt;Math.sqrt(t.distSquared(e)),a=(t,e)=&gt;t.scale(2/3).add(e.scale(1/3)),h=t=&gt;{let e,s,r,n,o,i,a,h=new g;return t.match(/(\w+\(\s*[^)]+\))+/g).forEach(t=&gt;{let l=t.match(/[\w.-]+/g),d=l.shift();switch(d){case&quot;translate&quot;:2===l.length?e=new g(1,0,0,1,l[0],l[1]):(console.error(&quot;mesh.js: translate does not have 2 arguments!&quot;),e=new g(1,0,0,1,0,0)),h=h.append(e);break;case&quot;scale&quot;:1===l.length?s=new g(l[0],0,0,l[0],0,0):2===l.length?s=new g(l[0],0,0,l[1],0,0):(console.error(&quot;mesh.js: scale does not have 1 or 2 arguments!&quot;),s=new g(1,0,0,1,0,0)),h=h.append(s);break;case&quot;rotate&quot;:if(3===l.length&amp;&amp;(e=new g(1,0,0,1,l[1],l[2]),h=h.append(e)),l[0]){r=l[0]*Math.PI/180;let t=Math.cos(r),e=Math.sin(r);Math.abs(t)&lt;1e-16&amp;&amp;(t=0),Math.abs(e)&lt;1e-16&amp;&amp;(e=0),a=new g(t,e,-e,t,0,0),h=h.append(a)}else console.error(&quot;math.js: No argument to rotate transform!&quot;);3===l.length&amp;&amp;(e=new g(1,0,0,1,-l[1],-l[2]),h=h.append(e));break;case&quot;skewX&quot;:l[0]?(r=l[0]*Math.PI/180,n=Math.tan(r),o=new g(1,0,n,1,0,0),h=h.append(o)):console.error(&quot;math.js: No argument to skewX transform!&quot;);break;case&quot;skewY&quot;:l[0]?(r=l[0]*Math.PI/180,n=Math.tan(r),i=new g(1,n,0,1,0,0),h=h.append(i)):console.error(&quot;math.js: No argument to skewY transform!&quot;);break;case&quot;matrix&quot;:6===l.length?h=h.append(new g(...l)):console.error(&quot;math.js: Incorrect number of arguments for matrix!&quot;);break;default:console.error(&quot;mesh.js: Unhandled transform type: &quot;+d)}}),h},l=t=&gt;{let e=[],s=t.split(/[ ,]+/);for(let t=0,r=s.length-1;t&lt;r;t+=2)e.push(new x(parseFloat(s[t]),parseFloat(s[t+1])));return e},d=(t,e)=&gt;{for(let s in e)t.setAttribute(s,e[s])},c=(t,e,s,r,n)=&gt;{let o,i,a=[0,0,0,0];for(let h=0;h&lt;3;++h)e[h]&lt;t[h]&amp;&amp;e[h]&lt;s[h]||t[h]&lt;e[h]&amp;&amp;s[h]&lt;e[h]?a[h]=0:(a[h]=.5*((e[h]-t[h])/r+(s[h]-e[h])/n),o=Math.abs(3*(e[h]-t[h])/r),i=Math.abs(3*(s[h]-e[h])/n),a[h]&gt;o?a[h]=o:a[h]&gt;i&amp;&amp;(a[h]=i));return a},u=[[1,0,0,0,0,0,0,0,0,0,0,0,0,0,0,0],[0,0,0,0,1,0,0,0,0,0,0,0,0,0,0,0],[-3,3,0,0,-2,-1,0,0,0,0,0,0,0,0,0,0],[2,-2,0,0,1,1,0,0,0,0,0,0,0,0,0,0],[0,0,0,0,0,0,0,0,1,0,0,0,0,0,0,0],[0,0,0,0,0,0,0,0,0,0,0,0,1,0,0,0],[0,0,0,0,0,0,0,0,-3,3,0,0,-2,-1,0,0],[0,0,0,0,0,0,0,0,2,-2,0,0,1,1,0,0],[-3,0,3,0,0,0,0,0,-2,0,-1,0,0,0,0,0],[0,0,0,0,-3,0,3,0,0,0,0,0,-2,0,-1,0],[9,-9,-9,9,6,3,-6,-3,6,-6,3,-3,4,2,2,1],[-6,6,6,-6,-3,-3,3,3,-4,4,-2,2,-2,-2,-1,-1],[2,0,-2,0,0,0,0,0,1,0,1,0,0,0,0,0],[0,0,0,0,2,0,-2,0,0,0,0,0,1,0,1,0],[-6,6,6,-6,-4,-2,4,2,-3,3,-3,3,-2,-1,-2,-1],[4,-4,-4,4,2,2,-2,-2,2,-2,2,-2,1,1,1,1]],f=t=&gt;{let e=[];for(let s=0;s&lt;16;++s){e[s]=0;for(let r=0;r&lt;16;++r)e[s]+=u[s][r]*t[r]}return e},p=(t,e,s)=&gt;{const r=e*e,n=s*s,o=e*e*e,i=s*s*s;return t[0]+t[1]*e+t[2]*r+t[3]*o+t[4]*s+t[5]*s*e+t[6]*s*r+t[7]*s*o+t[8]*n+t[9]*n*e+t[10]*n*r+t[11]*n*o+t[12]*i+t[13]*i*e+t[14]*i*r+t[15]*i*o},y=t=&gt;{let e=[],s=[],r=[];for(let s=0;s&lt;4;++s)e[s]=[],e[s][0]=n(t[0][s],t[1][s],t[2][s],t[3][s]),e[s][1]=[],e[s][1].push(...n(...e[s][0][0])),e[s][1].push(...n(...e[s][0][1])),e[s][2]=[],e[s][2].push(...n(...e[s][1][0])),e[s][2].push(...n(...e[s][1][1])),e[s][2].push(...n(...e[s][1][2])),e[s][2].push(...n(...e[s][1][3]));for(let t=0;t&lt;8;++t){s[t]=[];for(let r=0;r&lt;4;++r)s[t][r]=[],s[t][r][0]=n(e[0][2][t][r],e[1][2][t][r],e[2][2][t][r],e[3][2][t][r]),s[t][r][1]=[],s[t][r][1].push(...n(...s[t][r][0][0])),s[t][r][1].push(...n(...s[t][r][0][1])),s[t][r][2]=[],s[t][r][2].push(...n(...s[t][r][1][0])),s[t][r][2].push(...n(...s[t][r][1][1])),s[t][r][2].push(...n(...s[t][r][1][2])),s[t][r][2].push(...n(...s[t][r][1][3]))}for(let t=0;t&lt;8;++t){r[t]=[];for(let e=0;e&lt;8;++e)r[t][e]=[],r[t][e][0]=s[t][0][2][e],r[t][e][1]=s[t][1][2][e],r[t][e][2]=s[t][2][2][e],r[t][e][3]=s[t][3][2][e]}return r};class x{constructor(t,e){this.x=t||0,this.y=e||0}toString(){return`(x=${this.x}, y=${this.y})`}clone(){return new x(this.x,this.y)}add(t){return new x(this.x+t.x,this.y+t.y)}scale(t){return void 0===t.x?new x(this.x*t,this.y*t):new x(this.x*t.x,this.y*t.y)}distSquared(t){let e=this.x-t.x,s=this.y-t.y;return e*e+s*s}transform(t){let e=this.x*t.a+this.y*t.c+t.e,s=this.x*t.b+this.y*t.d+t.f;return new x(e,s)}}class g{constructor(t,e,s,r,n,o){void 0===t?(this.a=1,this.b=0,this.c=0,this.d=1,this.e=0,this.f=0):(this.a=t,this.b=e,this.c=s,this.d=r,this.e=n,this.f=o)}toString(){return`affine: ${this.a} ${this.c} ${this.e} \n       ${this.b} ${this.d} ${this.f}`}append(t){t instanceof g||console.error(&quot;mesh.js: argument to Affine.append is not affine!&quot;);let e=this.a*t.a+this.c*t.b,s=this.b*t.a+this.d*t.b,r=this.a*t.c+this.c*t.d,n=this.b*t.c+this.d*t.d,o=this.a*t.e+this.c*t.f+this.e,i=this.b*t.e+this.d*t.f+this.f;return new g(e,s,r,n,o,i)}}class w{constructor(t,e){this.nodes=t,this.colors=e}paintCurve(t,e){if(o(this.nodes)&gt;r){const s=n(...this.nodes);let r=[[],[]],o=[[],[]];for(let t=0;t&lt;4;++t)r[0][t]=this.colors[0][t],r[1][t]=(this.colors[0][t]+this.colors[1][t])/2,o[0][t]=r[1][t],o[1][t]=this.colors[1][t];let i=new w(s[0],r),a=new w(s[1],o);i.paintCurve(t,e),a.paintCurve(t,e)}else{let s=Math.round(this.nodes[0].x);if(s&gt;=0&amp;&amp;s&lt;e){let r=4*(~~this.nodes[0].y*e+s);t[r]=Math.round(this.colors[0][0]),t[r+1]=Math.round(this.colors[0][1]),t[r+2]=Math.round(this.colors[0][2]),t[r+3]=Math.round(this.colors[0][3])}}}}class m{constructor(t,e){this.nodes=t,this.colors=e}split(){let t=[[],[],[],[]],e=[[],[],[],[]],s=[[[],[]],[[],[]]],r=[[[],[]],[[],[]]];for(let s=0;s&lt;4;++s){const r=n(this.nodes[0][s],this.nodes[1][s],this.nodes[2][s],this.nodes[3][s]);t[0][s]=r[0][0],t[1][s]=r[0][1],t[2][s]=r[0][2],t[3][s]=r[0][3],e[0][s]=r[1][0],e[1][s]=r[1][1],e[2][s]=r[1][2],e[3][s]=r[1][3]}for(let t=0;t&lt;4;++t)s[0][0][t]=this.colors[0][0][t],s[0][1][t]=this.colors[0][1][t],s[1][0][t]=(this.colors[0][0][t]+this.colors[1][0][t])/2,s[1][1][t]=(this.colors[0][1][t]+this.colors[1][1][t])/2,r[0][0][t]=s[1][0][t],r[0][1][t]=s[1][1][t],r[1][0][t]=this.colors[1][0][t],r[1][1][t]=this.colors[1][1][t];return[new m(t,s),new m(e,r)]}paint(t,e){let s,n=!1;for(let t=0;t&lt;4;++t)if((s=o([this.nodes[0][t],this.nodes[1][t],this.nodes[2][t],this.nodes[3][t]]))&gt;r){n=!0;break}if(n){let s=this.split();s[0].paint(t,e),s[1].paint(t,e)}else{new w([...this.nodes[0]],[...this.colors[0]]).paintCurve(t,e)}}}class b{constructor(t){this.readMesh(t),this.type=t.getAttribute(&quot;type&quot;)||&quot;bilinear&quot;}readMesh(t){let e=[[]],s=[[]],r=Number(t.getAttribute(&quot;x&quot;)),n=Number(t.getAttribute(&quot;y&quot;));e[0][0]=new x(r,n);let o=t.children;for(let t=0,r=o.length;t&lt;r;++t){e[3*t+1]=[],e[3*t+2]=[],e[3*t+3]=[],s[t+1]=[];let r=o[t].children;for(let n=0,o=r.length;n&lt;o;++n){let o=r[n].children;for(let r=0,i=o.length;r&lt;i;++r){let i=r;0!==t&amp;&amp;++i;let h,d=o[r].getAttribute(&quot;path&quot;),c=&quot;l&quot;;null!=d&amp;&amp;(c=(h=d.match(/\s*([lLcC])\s*(.*)/))[1]);let u=l(h[2]);switch(c){case&quot;l&quot;:0===i?(e[3*t][3*n+3]=u[0].add(e[3*t][3*n]),e[3*t][3*n+1]=a(e[3*t][3*n],e[3*t][3*n+3]),e[3*t][3*n+2]=a(e[3*t][3*n+3],e[3*t][3*n])):1===i?(e[3*t+3][3*n+3]=u[0].add(e[3*t][3*n+3]),e[3*t+1][3*n+3]=a(e[3*t][3*n+3],e[3*t+3][3*n+3]),e[3*t+2][3*n+3]=a(e[3*t+3][3*n+3],e[3*t][3*n+3])):2===i?(0===n&amp;&amp;(e[3*t+3][3*n+0]=u[0].add(e[3*t+3][3*n+3])),e[3*t+3][3*n+1]=a(e[3*t+3][3*n],e[3*t+3][3*n+3]),e[3*t+3][3*n+2]=a(e[3*t+3][3*n+3],e[3*t+3][3*n])):(e[3*t+1][3*n]=a(e[3*t][3*n],e[3*t+3][3*n]),e[3*t+2][3*n]=a(e[3*t+3][3*n],e[3*t][3*n]));break;case&quot;L&quot;:0===i?(e[3*t][3*n+3]=u[0],e[3*t][3*n+1]=a(e[3*t][3*n],e[3*t][3*n+3]),e[3*t][3*n+2]=a(e[3*t][3*n+3],e[3*t][3*n])):1===i?(e[3*t+3][3*n+3]=u[0],e[3*t+1][3*n+3]=a(e[3*t][3*n+3],e[3*t+3][3*n+3]),e[3*t+2][3*n+3]=a(e[3*t+3][3*n+3],e[3*t][3*n+3])):2===i?(0===n&amp;&amp;(e[3*t+3][3*n+0]=u[0]),e[3*t+3][3*n+1]=a(e[3*t+3][3*n],e[3*t+3][3*n+3]),e[3*t+3][3*n+2]=a(e[3*t+3][3*n+3],e[3*t+3][3*n])):(e[3*t+1][3*n]=a(e[3*t][3*n],e[3*t+3][3*n]),e[3*t+2][3*n]=a(e[3*t+3][3*n],e[3*t][3*n]));break;case&quot;c&quot;:0===i?(e[3*t][3*n+1]=u[0].add(e[3*t][3*n]),e[3*t][3*n+2]=u[1].add(e[3*t][3*n]),e[3*t][3*n+3]=u[2].add(e[3*t][3*n])):1===i?(e[3*t+1][3*n+3]=u[0].add(e[3*t][3*n+3]),e[3*t+2][3*n+3]=u[1].add(e[3*t][3*n+3]),e[3*t+3][3*n+3]=u[2].add(e[3*t][3*n+3])):2===i?(e[3*t+3][3*n+2]=u[0].add(e[3*t+3][3*n+3]),e[3*t+3][3*n+1]=u[1].add(e[3*t+3][3*n+3]),0===n&amp;&amp;(e[3*t+3][3*n+0]=u[2].add(e[3*t+3][3*n+3]))):(e[3*t+2][3*n]=u[0].add(e[3*t+3][3*n]),e[3*t+1][3*n]=u[1].add(e[3*t+3][3*n]));break;case&quot;C&quot;:0===i?(e[3*t][3*n+1]=u[0],e[3*t][3*n+2]=u[1],e[3*t][3*n+3]=u[2]):1===i?(e[3*t+1][3*n+3]=u[0],e[3*t+2][3*n+3]=u[1],e[3*t+3][3*n+3]=u[2]):2===i?(e[3*t+3][3*n+2]=u[0],e[3*t+3][3*n+1]=u[1],0===n&amp;&amp;(e[3*t+3][3*n+0]=u[2])):(e[3*t+2][3*n]=u[0],e[3*t+1][3*n]=u[1]);break;default:console.error(&quot;mesh.js: &quot;+c+&quot; invalid path type.&quot;)}if(0===t&amp;&amp;0===n||r&gt;0){let e=window.getComputedStyle(o[r]).stopColor.match(/^rgb\s*\(\s*(\d+)\s*,\s*(\d+)\s*,\s*(\d+)\s*\)$/i),a=window.getComputedStyle(o[r]).stopOpacity,h=255;a&amp;&amp;(h=Math.floor(255*a)),e&amp;&amp;(0===i?(s[t][n]=[],s[t][n][0]=Math.floor(e[1]),s[t][n][1]=Math.floor(e[2]),s[t][n][2]=Math.floor(e[3]),s[t][n][3]=h):1===i?(s[t][n+1]=[],s[t][n+1][0]=Math.floor(e[1]),s[t][n+1][1]=Math.floor(e[2]),s[t][n+1][2]=Math.floor(e[3]),s[t][n+1][3]=h):2===i?(s[t+1][n+1]=[],s[t+1][n+1][0]=Math.floor(e[1]),s[t+1][n+1][1]=Math.floor(e[2]),s[t+1][n+1][2]=Math.floor(e[3]),s[t+1][n+1][3]=h):3===i&amp;&amp;(s[t+1][n]=[],s[t+1][n][0]=Math.floor(e[1]),s[t+1][n][1]=Math.floor(e[2]),s[t+1][n][2]=Math.floor(e[3]),s[t+1][n][3]=h))}}e[3*t+1][3*n+1]=new x,e[3*t+1][3*n+2]=new x,e[3*t+2][3*n+1]=new x,e[3*t+2][3*n+2]=new x,e[3*t+1][3*n+1].x=(-4*e[3*t][3*n].x+6*(e[3*t][3*n+1].x+e[3*t+1][3*n].x)+-2*(e[3*t][3*n+3].x+e[3*t+3][3*n].x)+3*(e[3*t+3][3*n+1].x+e[3*t+1][3*n+3].x)+-1*e[3*t+3][3*n+3].x)/9,e[3*t+1][3*n+2].x=(-4*e[3*t][3*n+3].x+6*(e[3*t][3*n+2].x+e[3*t+1][3*n+3].x)+-2*(e[3*t][3*n].x+e[3*t+3][3*n+3].x)+3*(e[3*t+3][3*n+2].x+e[3*t+1][3*n].x)+-1*e[3*t+3][3*n].x)/9,e[3*t+2][3*n+1].x=(-4*e[3*t+3][3*n].x+6*(e[3*t+3][3*n+1].x+e[3*t+2][3*n].x)+-2*(e[3*t+3][3*n+3].x+e[3*t][3*n].x)+3*(e[3*t][3*n+1].x+e[3*t+2][3*n+3].x)+-1*e[3*t][3*n+3].x)/9,e[3*t+2][3*n+2].x=(-4*e[3*t+3][3*n+3].x+6*(e[3*t+3][3*n+2].x+e[3*t+2][3*n+3].x)+-2*(e[3*t+3][3*n].x+e[3*t][3*n+3].x)+3*(e[3*t][3*n+2].x+e[3*t+2][3*n].x)+-1*e[3*t][3*n].x)/9,e[3*t+1][3*n+1].y=(-4*e[3*t][3*n].y+6*(e[3*t][3*n+1].y+e[3*t+1][3*n].y)+-2*(e[3*t][3*n+3].y+e[3*t+3][3*n].y)+3*(e[3*t+3][3*n+1].y+e[3*t+1][3*n+3].y)+-1*e[3*t+3][3*n+3].y)/9,e[3*t+1][3*n+2].y=(-4*e[3*t][3*n+3].y+6*(e[3*t][3*n+2].y+e[3*t+1][3*n+3].y)+-2*(e[3*t][3*n].y+e[3*t+3][3*n+3].y)+3*(e[3*t+3][3*n+2].y+e[3*t+1][3*n].y)+-1*e[3*t+3][3*n].y)/9,e[3*t+2][3*n+1].y=(-4*e[3*t+3][3*n].y+6*(e[3*t+3][3*n+1].y+e[3*t+2][3*n].y)+-2*(e[3*t+3][3*n+3].y+e[3*t][3*n].y)+3*(e[3*t][3*n+1].y+e[3*t+2][3*n+3].y)+-1*e[3*t][3*n+3].y)/9,e[3*t+2][3*n+2].y=(-4*e[3*t+3][3*n+3].y+6*(e[3*t+3][3*n+2].y+e[3*t+2][3*n+3].y)+-2*(e[3*t+3][3*n].y+e[3*t][3*n+3].y)+3*(e[3*t][3*n+2].y+e[3*t+2][3*n].y)+-1*e[3*t][3*n].y)/9}}this.nodes=e,this.colors=s}paintMesh(t,e){let s=(this.nodes.length-1)/3,r=(this.nodes[0].length-1)/3;if(&quot;bilinear&quot;===this.type||s&lt;2||r&lt;2){let n;for(let o=0;o&lt;s;++o)for(let s=0;s&lt;r;++s){let r=[];for(let t=3*o,e=3*o+4;t&lt;e;++t)r.push(this.nodes[t].slice(3*s,3*s+4));let i=[];i.push(this.colors[o].slice(s,s+2)),i.push(this.colors[o+1].slice(s,s+2)),(n=new m(r,i)).paint(t,e)}}else{let n,o,a,h,l,d,u;const x=s,g=r;s++,r++;let w=new Array(s);for(let t=0;t&lt;s;++t){w[t]=new Array(r);for(let e=0;e&lt;r;++e)w[t][e]=[],w[t][e][0]=this.nodes[3*t][3*e],w[t][e][1]=this.colors[t][e]}for(let t=0;t&lt;s;++t)for(let e=0;e&lt;r;++e)0!==t&amp;&amp;t!==x&amp;&amp;(n=i(w[t-1][e][0],w[t][e][0]),o=i(w[t+1][e][0],w[t][e][0]),w[t][e][2]=c(w[t-1][e][1],w[t][e][1],w[t+1][e][1],n,o)),0!==e&amp;&amp;e!==g&amp;&amp;(n=i(w[t][e-1][0],w[t][e][0]),o=i(w[t][e+1][0],w[t][e][0]),w[t][e][3]=c(w[t][e-1][1],w[t][e][1],w[t][e+1][1],n,o));for(let t=0;t&lt;r;++t){w[0][t][2]=[],w[x][t][2]=[];for(let e=0;e&lt;4;++e)n=i(w[1][t][0],w[0][t][0]),o=i(w[x][t][0],w[x-1][t][0]),w[0][t][2][e]=n&gt;0?2*(w[1][t][1][e]-w[0][t][1][e])/n-w[1][t][2][e]:0,w[x][t][2][e]=o&gt;0?2*(w[x][t][1][e]-w[x-1][t][1][e])/o-w[x-1][t][2][e]:0}for(let t=0;t&lt;s;++t){w[t][0][3]=[],w[t][g][3]=[];for(let e=0;e&lt;4;++e)n=i(w[t][1][0],w[t][0][0]),o=i(w[t][g][0],w[t][g-1][0]),w[t][0][3][e]=n&gt;0?2*(w[t][1][1][e]-w[t][0][1][e])/n-w[t][1][3][e]:0,w[t][g][3][e]=o&gt;0?2*(w[t][g][1][e]-w[t][g-1][1][e])/o-w[t][g-1][3][e]:0}for(let s=0;s&lt;x;++s)for(let r=0;r&lt;g;++r){let n=i(w[s][r][0],w[s+1][r][0]),o=i(w[s][r+1][0],w[s+1][r+1][0]),c=i(w[s][r][0],w[s][r+1][0]),x=i(w[s+1][r][0],w[s+1][r+1][0]),g=[[],[],[],[]];for(let t=0;t&lt;4;++t){(d=[])[0]=w[s][r][1][t],d[1]=w[s+1][r][1][t],d[2]=w[s][r+1][1][t],d[3]=w[s+1][r+1][1][t],d[4]=w[s][r][2][t]*n,d[5]=w[s+1][r][2][t]*n,d[6]=w[s][r+1][2][t]*o,d[7]=w[s+1][r+1][2][t]*o,d[8]=w[s][r][3][t]*c,d[9]=w[s+1][r][3][t]*x,d[10]=w[s][r+1][3][t]*c,d[11]=w[s+1][r+1][3][t]*x,d[12]=0,d[13]=0,d[14]=0,d[15]=0,u=f(d);for(let e=0;e&lt;9;++e){g[t][e]=[];for(let s=0;s&lt;9;++s)g[t][e][s]=p(u,e/8,s/8),g[t][e][s]&gt;255?g[t][e][s]=255:g[t][e][s]&lt;0&amp;&amp;(g[t][e][s]=0)}}h=[];for(let t=3*s,e=3*s+4;t&lt;e;++t)h.push(this.nodes[t].slice(3*r,3*r+4));l=y(h);for(let s=0;s&lt;8;++s)for(let r=0;r&lt;8;++r)(a=new m(l[s][r],[[[g[0][s][r],g[1][s][r],g[2][s][r],g[3][s][r]],[g[0][s][r+1],g[1][s][r+1],g[2][s][r+1],g[3][s][r+1]]],[[g[0][s+1][r],g[1][s+1][r],g[2][s+1][r],g[3][s+1][r]],[g[0][s+1][r+1],g[1][s+1][r+1],g[2][s+1][r+1],g[3][s+1][r+1]]]])).paint(t,e)}}}transform(t){if(t instanceof x)for(let e=0,s=this.nodes.length;e&lt;s;++e)for(let s=0,r=this.nodes[0].length;s&lt;r;++s)this.nodes[e][s]=this.nodes[e][s].add(t);else if(t instanceof g)for(let e=0,s=this.nodes.length;e&lt;s;++e)for(let s=0,r=this.nodes[0].length;s&lt;r;++s)this.nodes[e][s]=this.nodes[e][s].transform(t)}scale(t){for(let e=0,s=this.nodes.length;e&lt;s;++e)for(let s=0,r=this.nodes[0].length;s&lt;r;++s)this.nodes[e][s]=this.nodes[e][s].scale(t)}}document.querySelectorAll(&quot;rect,circle,ellipse,path,text&quot;).forEach((r,n)=&gt;{let o=r.getAttribute(&quot;id&quot;);o||(o=&quot;patchjs_shape&quot;+n,r.setAttribute(&quot;id&quot;,o));const i=r.style.fill.match(/^url\(\s*&quot;?\s*#([^\s&quot;]+)&quot;?\s*\)/),a=r.style.stroke.match(/^url\(\s*&quot;?\s*#([^\s&quot;]+)&quot;?\s*\)/);if(i&amp;&amp;i[1]){const a=document.getElementById(i[1]);if(a&amp;&amp;&quot;meshgradient&quot;===a.nodeName){const i=r.getBBox();let l=document.createElementNS(s,&quot;canvas&quot;);d(l,{width:i.width,height:i.height});const c=l.getContext(&quot;2d&quot;);let u=c.createImageData(i.width,i.height);const f=new b(a);&quot;objectBoundingBox&quot;===a.getAttribute(&quot;gradientUnits&quot;)&amp;&amp;f.scale(new x(i.width,i.height));const p=a.getAttribute(&quot;gradientTransform&quot;);null!=p&amp;&amp;f.transform(h(p)),&quot;userSpaceOnUse&quot;===a.getAttribute(&quot;gradientUnits&quot;)&amp;&amp;f.transform(new x(-i.x,-i.y)),f.paintMesh(u.data,l.width),c.putImageData(u,0,0);const y=document.createElementNS(t,&quot;image&quot;);d(y,{width:i.width,height:i.height,x:i.x,y:i.y});let g=l.toDataURL();y.setAttributeNS(e,&quot;xlink:href&quot;,g),r.parentNode.insertBefore(y,r),r.style.fill=&quot;none&quot;;const w=document.createElementNS(t,&quot;use&quot;);w.setAttributeNS(e,&quot;xlink:href&quot;,&quot;#&quot;+o);const m=&quot;patchjs_clip&quot;+n,M=document.createElementNS(t,&quot;clipPath&quot;);M.setAttribute(&quot;id&quot;,m),M.appendChild(w),r.parentElement.insertBefore(M,r),y.setAttribute(&quot;clip-path&quot;,&quot;url(#&quot;+m+&quot;)&quot;),u=null,l=null,g=null}}if(a&amp;&amp;a[1]){const o=document.getElementById(a[1]);if(o&amp;&amp;&quot;meshgradient&quot;===o.nodeName){const i=parseFloat(r.style.strokeWidth.slice(0,-2))*(parseFloat(r.style.strokeMiterlimit)||parseFloat(r.getAttribute(&quot;stroke-miterlimit&quot;))||1),a=r.getBBox(),l=Math.trunc(a.width+i),c=Math.trunc(a.height+i),u=Math.trunc(a.x-i/2),f=Math.trunc(a.y-i/2);let p=document.createElementNS(s,&quot;canvas&quot;);d(p,{width:l,height:c});const y=p.getContext(&quot;2d&quot;);let g=y.createImageData(l,c);const w=new b(o);&quot;objectBoundingBox&quot;===o.getAttribute(&quot;gradientUnits&quot;)&amp;&amp;w.scale(new x(l,c));const m=o.getAttribute(&quot;gradientTransform&quot;);null!=m&amp;&amp;w.transform(h(m)),&quot;userSpaceOnUse&quot;===o.getAttribute(&quot;gradientUnits&quot;)&amp;&amp;w.transform(new x(-u,-f)),w.paintMesh(g.data,p.width),y.putImageData(g,0,0);const M=document.createElementNS(t,&quot;image&quot;);d(M,{width:l,height:c,x:0,y:0});let S=p.toDataURL();M.setAttributeNS(e,&quot;xlink:href&quot;,S);const k=&quot;pattern_clip&quot;+n,A=document.createElementNS(t,&quot;pattern&quot;);d(A,{id:k,patternUnits:&quot;userSpaceOnUse&quot;,width:l,height:c,x:u,y:f}),A.appendChild(M),o.parentNode.appendChild(A),r.style.stroke=&quot;url(#&quot;+k+&quot;)&quot;,g=null,p=null,S=null}}})}();
</script></svg>
