<?xml version="1.0" encoding="UTF-8" standalone="no"?>
<!-- Created with Inkscape (http://www.inkscape.org/) -->

<svg
   xmlns:dc="http://purl.org/dc/elements/1.1/"
   xmlns:cc="http://creativecommons.org/ns#"
   xmlns:rdf="http://www.w3.org/1999/02/22-rdf-syntax-ns#"
   xmlns:svg="http://www.w3.org/2000/svg"
   xmlns="http://www.w3.org/2000/svg"
   xmlns:sodipodi="http://sodipodi.sourceforge.net/DTD/sodipodi-0.dtd"
   xmlns:inkscape="http://www.inkscape.org/namespaces/inkscape"
   version="1.1"
   id="svg2"
   xml:space="preserve"
   width="35mm"
   height="77mm"
   viewBox="0 0 132.28346 291.0236"
   sodipodi:docname="DOMjudgelogo_sticker.svg"
   inkscape:version="0.92.1 r15371"
   inkscape:export-filename="/home/sitowert/domjudge/doc/logos/DOMjudgelogo_sticker.png"
   inkscape:export-xdpi="96"
   inkscape:export-ydpi="96"><metadata
     id="metadata8"><rdf:RDF><cc:Work
         rdf:about=""><dc:format>image/svg+xml</dc:format><dc:type
           rdf:resource="http://purl.org/dc/dcmitype/StillImage" /><dc:title></dc:title></cc:Work></rdf:RDF></metadata><defs
     id="defs6" /><sodipodi:namedview
     pagecolor="#ffffff"
     bordercolor="#666666"
     borderopacity="1"
     objecttolerance="10"
     gridtolerance="10"
     guidetolerance="10"
     inkscape:pageopacity="0"
     inkscape:pageshadow="2"
     inkscape:window-width="1900"
     inkscape:window-height="1030"
     id="namedview4"
     showgrid="false"
     units="mm"
     inkscape:zoom="2.6665761"
     inkscape:cx="121.52261"
     inkscape:cy="198.80093"
     inkscape:window-x="7"
     inkscape:window-y="37"
     inkscape:window-maximized="0"
     inkscape:current-layer="g10" /><g
     inkscape:groupmode="layer"
     id="layer1"
     inkscape:label="background"><rect
       style="fill:#00006c;fill-opacity:1;stroke:#ffffff;stroke-width:0.75;stroke-opacity:1"
       id="rect4561"
       width="99.212601"
       height="218.26772"
       x="107.00001"
       y="-218.26764"
       transform="matrix(1.3333333,0,0,1.3333333,-142.66667,291.02352)" /></g><g
     id="g10"
     inkscape:groupmode="layer"
     inkscape:label="DOMjudgelogo"
     transform="matrix(1.3333333,0,0,-1.3333333,-142.66667,291.02352)"><g
       id="g4640"
       transform="translate(-1.4501031,0.03401892)"><text
         y="201.37637"
         x="1.5102098"
         id="text14"
         style="font-variant:normal;font-weight:bold;font-size:53.71373749px;font-family:Verdana;-inkscape-font-specification:Verdana-Bold;writing-mode:lr-tb;fill:#c1c4cb;fill-opacity:1;fill-rule:nonzero;stroke:none;stroke-width:0.26639608"
         transform="matrix(-0.00529219,0.99852368,1.0014509,0.00520751,0,0)"><tspan
           style="stroke-width:0.26639608"
           id="tspan12"
           sodipodi:role="line"
           y="201.37637"
           x="1.5102098 46.092606 91.74929">DOM</tspan></text>
<text
         y="199.6532"
         x="3.2519548"
         id="text18"
         style="font-variant:normal;font-weight:bold;font-size:53.71373749px;font-family:Verdana;-inkscape-font-specification:Verdana-Bold;writing-mode:lr-tb;fill:#ffffff;fill-opacity:1;fill-rule:nonzero;stroke:none;stroke-width:0.26639608"
         transform="matrix(-0.00529219,0.99852368,1.0014509,0.00520751,0,0)"><tspan
           style="fill:#ffffff;stroke-width:0.26639608"
           id="tspan16"
           sodipodi:role="line"
           y="199.6532"
           x="3.2519548 47.834358 93.491035">DOM</tspan></text>
<text
         y="175.6389"
         x="143.0085"
         id="text22"
         style="font-style:italic;font-variant:normal;font-weight:bold;font-size:19.02080917px;font-family:Verdana;-inkscape-font-specification:Verdana-BoldItalic;writing-mode:lr-tb;fill:#c1c4cb;fill-opacity:1;fill-rule:nonzero;stroke:none;stroke-width:0.26639605"
         transform="matrix(-0.00529202,0.9985236,1.001451,0.00520758,0,0)"><tspan
           style="stroke-width:0.26639605"
           id="tspan20"
           sodipodi:role="line"
           y="175.6389"
           x="143.0085 150.67389 164.21671 177.51225 190.8078">judge</tspan></text>
<text
         y="175.0282"
         x="143.62537"
         id="text26"
         style="font-style:italic;font-variant:normal;font-weight:bold;font-size:19.02080917px;font-family:Verdana;-inkscape-font-specification:Verdana-BoldItalic;writing-mode:lr-tb;fill:#ffffff;fill-opacity:1;fill-rule:nonzero;stroke:none;stroke-width:0.26639605"
         transform="matrix(-0.00529202,0.9985236,1.001451,0.00520758,0,0)"><tspan
           style="fill:#ffffff;stroke-width:0.26639605"
           id="tspan24"
           sodipodi:role="line"
           y="175.0282"
           x="143.62537 151.29076 164.83357 178.12912 191.42465">judge</tspan></text>
<path
         inkscape:connector-curvature="0"
         id="path28"
         style="fill:none;stroke:#231f20;stroke-width:0.44195554;stroke-linecap:butt;stroke-linejoin:round;stroke-miterlimit:10;stroke-dasharray:none;stroke-opacity:1"
         d="m 134.75191,210.68997 -6.79067,-17.21267 h -5.09317 v -49.30076 h -4.03202 V 89.775451 h -4.45616 V 9.874775 h 23.97963" /><path
         inkscape:connector-curvature="0"
         id="path30"
         style="fill:none;stroke:#231f20;stroke-width:0.44195554;stroke-linecap:butt;stroke-linejoin:round;stroke-miterlimit:10;stroke-dasharray:none;stroke-opacity:1"
         d="m 134.75191,210.68997 6.79094,-17.21267 h 5.09291 v -49.30076 h 4.24409 V 89.775451 h 4.24409 V 9.874775 h -23.97938" /><path
         inkscape:connector-curvature="0"
         id="path32"
         style="fill:none;stroke:#ffffff;stroke-width:0.98325002;stroke-linecap:butt;stroke-linejoin:round;stroke-miterlimit:10;stroke-dasharray:none;stroke-opacity:1"
         d="m 134.75191,210.68997 -6.79067,-17.21267 h -5.09317 v -49.30076 h -4.03202 V 89.775451 h -4.45616 V 9.874775 h 23.97963" /><path
         inkscape:connector-curvature="0"
         id="path34"
         style="fill:none;stroke:#ffffff;stroke-width:0.98325002;stroke-linecap:butt;stroke-linejoin:round;stroke-miterlimit:10;stroke-dasharray:none;stroke-opacity:1"
         d="m 134.75191,210.68997 6.79094,-17.21267 h 5.09291 v -49.30076 h 4.24409 V 89.775451 h 4.24409 V 9.874775 h -23.97938" /><text
         y="-193.55615"
         x="130.38535"
         id="text38"
         style="font-variant:normal;font-weight:bold;font-size:7.85719776px;font-family:'Courier New';-inkscape-font-specification:CourierNewPS-BoldMT;writing-mode:lr-tb;fill:#c1c4cb;fill-opacity:1;fill-rule:nonzero;stroke:none;stroke-width:0.26660246"
         transform="scale(0.99931078,-1.0006897)"><tspan
           style="stroke-width:0.26660246"
           id="tspan36"
           y="-193.55615"
           x="130.38535">/</tspan></text>
<text
         y="-193.76834"
         x="130.17287"
         id="text42"
         style="font-variant:normal;font-weight:bold;font-size:7.85719776px;font-family:'Courier New';-inkscape-font-specification:CourierNewPS-BoldMT;writing-mode:lr-tb;fill:#ffffff;fill-opacity:1;fill-rule:nonzero;stroke:none;stroke-width:0.26660246"
         transform="scale(0.99931078,-1.0006897)"><tspan
           style="fill:#ffffff;stroke-width:0.26660246"
           id="tspan40"
           y="-193.76834"
           x="130.17287">/</tspan></text>
<text
         y="-193.55615"
         x="135.05733"
         id="text46"
         style="font-variant:normal;font-weight:bold;font-size:7.85719776px;font-family:'Courier New';-inkscape-font-specification:CourierNewPS-BoldMT;writing-mode:lr-tb;fill:#c1c4cb;fill-opacity:1;fill-rule:nonzero;stroke:none;stroke-width:0.26660246"
         transform="scale(0.99931078,-1.0006897)"><tspan
           style="stroke-width:0.26660246"
           id="tspan44"
           y="-193.55615"
           x="135.05733">\</tspan></text>
<text
         y="-193.76834"
         x="134.84485"
         id="text50"
         style="font-variant:normal;font-weight:bold;font-size:7.85719776px;font-family:'Courier New';-inkscape-font-specification:CourierNewPS-BoldMT;writing-mode:lr-tb;fill:#ffffff;fill-opacity:1;fill-rule:nonzero;stroke:none;stroke-width:0.26660246"
         transform="scale(0.99931078,-1.0006897)"><tspan
           style="fill:#ffffff;stroke-width:0.26660246"
           id="tspan48"
           y="-193.76834"
           x="134.84485">\</tspan></text>
<path
         inkscape:connector-curvature="0"
         id="path52"
         style="fill:#ffffff;fill-opacity:1;fill-rule:nonzero;stroke:none;stroke-width:0.26678631"
         d="m 135.6458,144.21745 v 13.65104 c 0,8.0458 0.19384,15.77869 0.5836,23.20116 0.38767,7.41986 0.94626,11.13116 1.67367,11.13116 0.41685,0 0.76909,-1.09424 1.0588,-3.27725 0.28763,-2.18301 0.56276,-6.23886 0.82537,-12.16222 0.26262,-5.92336 0.39393,-12.22267 0.39393,-18.89285 v -13.65104 m -1.06714,0.005 v 13.64036 c 0,6.74664 -0.15424,12.6463 -0.46271,17.69895 -0.17508,2.7881 -0.42311,4.18209 -0.73992,4.18209 -0.30847,0 -0.56067,-1.53611 -0.75658,-4.60559 -0.29597,-4.65026 -0.44187,-10.40779 -0.44187,-17.27545 v -13.64036" /><path
         inkscape:connector-curvature="0"
         id="path54"
         style="fill:#ffffff;fill-opacity:1;fill-rule:nonzero;stroke:none;stroke-width:0.26678631"
         d="m 143.82213,144.26812 v 36.43405 l -0.91917,-2.05196 c -0.14798,-0.34234 -0.25845,-0.51261 -0.33139,-0.51261 -0.1334,0 -0.24595,0.44044 -0.34182,1.32482 -0.0959,0.88269 -0.14173,1.9652 -0.14173,3.24742 0,1.16771 0.0354,2.08544 0.10629,2.75527 0.0709,0.66983 0.22094,1.26007 0.44812,1.77449 l 2.24684,4.87211 v -47.84359" /><path
         inkscape:connector-curvature="0"
         id="path56"
         style="fill:#ffffff;fill-opacity:1;fill-rule:nonzero;stroke:none;stroke-width:0.26678631"
         d="m 128.44257,144.09317 v 13.69325 c 0,8.07068 0.19384,15.82754 0.5836,23.27307 0.38767,7.44279 0.94626,11.16555 1.67366,11.16555 0.41686,0 0.7691,-1.09762 1.05881,-3.28741 0.28763,-2.18978 0.56276,-6.25814 0.82537,-12.19987 0.26262,-5.9416 0.39393,-12.26045 0.39393,-18.95134 v -13.69325 m -1.06714,0.005 v 13.68257 c 0,6.76762 -0.15424,12.68538 -0.46271,17.7538 -0.17508,2.79656 -0.42311,4.19498 -0.73992,4.19498 -0.30847,0 -0.56067,-1.54093 -0.75659,-4.61991 -0.29596,-4.66459 -0.44186,-10.43984 -0.44186,-17.32887 v -13.68257" /><path
         inkscape:connector-curvature="0"
         id="path58"
         style="fill:#ffffff;fill-opacity:1;fill-rule:nonzero;stroke:none;stroke-width:0.26678631"
         d="m 125.14709,144.26812 v 36.43405 l -0.91917,-2.05196 c -0.14798,-0.34234 -0.25845,-0.51261 -0.33139,-0.51261 -0.1334,0 -0.24595,0.44044 -0.34182,1.32482 -0.0959,0.88269 -0.14174,1.9652 -0.14174,3.24742 0,1.16771 0.0354,2.08544 0.1063,2.75527 0.0709,0.66983 0.22093,1.26007 0.44812,1.77449 l 2.24684,4.87211 v -47.84359" /><path
         inkscape:connector-curvature="0"
         id="path60"
         style="fill:#ffffff;fill-opacity:1;fill-rule:nonzero;stroke:none;stroke-width:0.26678631"
         d="m 147.06473,89.876281 v 39.007329 l -0.91917,-2.19681 c -0.14798,-0.36657 -0.25844,-0.54882 -0.33139,-0.54882 -0.1334,0 -0.24595,0.47157 -0.34182,1.41835 -0.0959,0.94508 -0.14173,2.10407 -0.14173,3.47682 0,1.25017 0.0354,2.23277 0.10629,2.94989 0.0709,0.71712 0.22094,1.34904 0.44812,1.89981 l 2.24684,5.21627 V 89.876281" /><path
         inkscape:connector-curvature="0"
         id="path62"
         style="fill:#ffffff;fill-opacity:1;fill-rule:nonzero;stroke:none;stroke-width:0.26678631"
         d="m 139.29184,89.792911 v 14.612409 c 0,8.61246 0.19384,16.89 0.5836,24.83523 0.38767,7.94236 0.94625,11.91511 1.67366,11.91511 0.41686,0 0.7691,-1.17136 1.05881,-3.50809 0.28763,-2.33672 0.56275,-6.67825 0.82537,-13.01873 0.26262,-6.3406 0.39393,-13.08347 0.39393,-20.22352 V 89.792911 m -1.06715,0.005 v 14.601069 c 0,7.22186 -0.15423,13.53707 -0.46271,18.94548 -0.17508,2.98454 -0.4231,4.47662 -0.73991,4.47662 -0.30847,0 -0.56067,-1.64423 -0.75659,-4.92995 -0.29597,-4.97775 -0.44186,-11.1408 -0.44186,-18.49215 V 89.797911" /><path
         inkscape:connector-curvature="0"
         id="path64"
         style="fill:#ffffff;fill-opacity:1;fill-rule:nonzero;stroke:none;stroke-width:0.26678631"
         d="m 132.3554,89.792911 v 14.612409 c 0,8.61246 0.19383,16.89 0.58359,24.83523 0.38767,7.94236 0.94626,11.91511 1.67367,11.91511 0.41685,0 0.76909,-1.17136 1.05881,-3.50809 0.28762,-2.33672 0.56275,-6.67825 0.82537,-13.01873 0.26261,-6.3406 0.39392,-13.08347 0.39392,-20.22352 V 89.792911 m -1.06714,0.005 v 14.601069 c 0,7.22186 -0.15424,13.53707 -0.46271,18.94548 -0.17508,2.98454 -0.42311,4.47662 -0.73991,4.47662 -0.30848,0 -0.56067,-1.64423 -0.75659,-4.92995 -0.29597,-4.97775 -0.44187,-11.1408 -0.44187,-18.49215 V 89.797911" /><path
         inkscape:connector-curvature="0"
         id="path66"
         style="fill:#ffffff;fill-opacity:1;fill-rule:nonzero;stroke:none;stroke-width:0.26678631"
         d="m 125.15217,89.792911 v 14.612409 c 0,8.61246 0.19383,16.89 0.58359,24.83523 0.38767,7.94236 0.94626,11.91511 1.67367,11.91511 0.41685,0 0.76909,-1.17136 1.05881,-3.50809 0.28762,-2.33672 0.56275,-6.67825 0.82537,-13.01873 0.26261,-6.3406 0.39392,-13.08347 0.39392,-20.22352 V 89.792911 m -1.06714,0.005 v 14.601069 c 0,7.22186 -0.15424,13.53707 -0.46271,18.94548 -0.17508,2.98454 -0.42311,4.47662 -0.73991,4.47662 -0.30848,0 -0.56067,-1.64423 -0.75659,-4.92995 -0.29597,-4.97775 -0.44187,-11.1408 -0.44187,-18.49215 V 89.797911" /><path
         inkscape:connector-curvature="0"
         id="path68"
         style="fill:#ffffff;fill-opacity:1;fill-rule:nonzero;stroke:none;stroke-width:0.26678631"
         d="m 121.98681,89.876281 v 39.007329 l -0.91916,-2.19681 c -0.14798,-0.36657 -0.25845,-0.54882 -0.3314,-0.54882 -0.13339,0 -0.24594,0.47157 -0.34182,1.41835 -0.0959,0.94508 -0.14173,2.10407 -0.14173,3.47682 0,1.25017 0.0354,2.23277 0.1063,2.94989 0.0709,0.71712 0.22093,1.34904 0.44812,1.89981 l 2.24684,5.21627 V 89.876281" /><path
         inkscape:connector-curvature="0"
         id="path70"
         style="fill:#ffffff;fill-opacity:1;fill-rule:nonzero;stroke:none;stroke-width:0.26678631"
         d="m 151.23925,9.920889 v 59.580102 l -0.91916,-3.35541 c -0.14798,-0.56014 -0.25845,-0.83865 -0.3314,-0.83865 -0.13339,0 -0.24594,0.72037 -0.34182,2.16633 -0.0959,1.44388 -0.14173,3.21394 -0.14173,5.31098 0,1.90945 0.0354,3.41038 0.1063,4.5054 0.0709,1.09529 0.22094,2.06056 0.44812,2.90182 l 2.24684,7.96764 V 9.920889" /><path
         inkscape:connector-curvature="0"
         id="path72"
         style="fill:#ffffff;fill-opacity:1;fill-rule:nonzero;stroke:none;stroke-width:0.26678631"
         d="M 142.93801,9.757013 V 32.11131 c 0,13.174921 0.19383,25.838151 0.58359,37.992821 0.38768,12.15024 0.94626,18.22796 1.67367,18.22796 0.41685,0 0.76909,-1.79194 1.05881,-5.36698 0.28762,-3.57452 0.56275,-10.21604 0.82537,-19.91597 0.26261,-9.69992 0.39392,-20.01523 0.39392,-30.937831 V 9.757013 m -1.06714,0.0083 v 22.336842 c 0,11.047656 -0.15424,20.709026 -0.46271,28.982786 -0.17508,4.56559 -0.42311,6.84864 -0.73991,6.84864 -0.30848,0 -0.56067,-2.51571 -0.75659,-7.54218 -0.29597,-7.61487 -0.44187,-17.04306 -0.44187,-28.289246 V 9.76535" /><path
         inkscape:connector-curvature="0"
         id="path74"
         style="fill:#ffffff;fill-opacity:1;fill-rule:nonzero;stroke:none;stroke-width:0.26678631"
         d="M 135.73478,9.757013 V 32.11131 c 0,13.174921 0.19383,25.838151 0.58359,37.992821 0.38768,12.15024 0.94626,18.22796 1.67367,18.22796 0.41685,0 0.76909,-1.79194 1.05881,-5.36698 0.28762,-3.57452 0.56275,-10.21604 0.82537,-19.91597 0.26261,-9.69992 0.39392,-20.01523 0.39392,-30.937831 V 9.757013 m -1.06714,0.0083 v 22.336842 c 0,11.047656 -0.15424,20.709026 -0.46271,28.982786 -0.17508,4.56559 -0.42311,6.84864 -0.73991,6.84864 -0.30848,0 -0.56067,-2.51571 -0.75659,-7.54218 -0.29597,-7.61487 -0.44187,-17.04306 -0.44187,-28.289246 V 9.76535" /><path
         inkscape:connector-curvature="0"
         id="path76"
         style="fill:#ffffff;fill-opacity:1;fill-rule:nonzero;stroke:none;stroke-width:0.26678631"
         d="M 128.79833,9.757013 V 32.11131 c 0,13.174921 0.19384,25.838151 0.5836,37.992821 0.38767,12.15024 0.94626,18.22796 1.67366,18.22796 0.41686,0 0.7691,-1.79194 1.05881,-5.36698 0.28763,-3.57452 0.56275,-10.21604 0.82537,-19.91597 0.26262,-9.69992 0.39393,-20.01523 0.39393,-30.937831 V 9.757013 m -1.06715,0.0083 v 22.336842 c 0,11.047656 -0.15423,20.709026 -0.4627,28.982786 -0.17508,4.56559 -0.42311,6.84864 -0.73992,6.84864 -0.30847,0 -0.56067,-2.51571 -0.75659,-7.54218 -0.29596,-7.61487 -0.44186,-17.04306 -0.44186,-28.289246 V 9.76535" /><path
         inkscape:connector-curvature="0"
         id="path78"
         style="fill:#ffffff;fill-opacity:1;fill-rule:nonzero;stroke:none;stroke-width:0.26678631"
         d="M 121.86189,9.757013 V 32.11131 c 0,13.174921 0.19383,25.838151 0.58359,37.992821 0.38768,12.15024 0.94626,18.22796 1.67367,18.22796 0.41685,0 0.76909,-1.79194 1.05881,-5.36698 0.28763,-3.57452 0.56275,-10.21604 0.82537,-19.91597 0.26261,-9.69992 0.39392,-20.01523 0.39392,-30.937831 V 9.757013 m -1.06714,0.0083 v 22.336842 c 0,11.047656 -0.15424,20.709026 -0.46271,28.982786 -0.17508,4.56559 -0.4231,6.84864 -0.73991,6.84864 -0.30847,0 -0.56067,-2.51571 -0.75659,-7.54218 -0.29597,-7.61487 -0.44187,-17.04306 -0.44187,-28.289246 V 9.76535" /><path
         inkscape:connector-curvature="0"
         id="path80"
         style="fill:#ffffff;fill-opacity:1;fill-rule:nonzero;stroke:none;stroke-width:0.26678631"
         d="m 117.89096,9.920889 v 59.580102 l -0.91916,-3.35541 c -0.14798,-0.56014 -0.25845,-0.83865 -0.3314,-0.83865 -0.13339,0 -0.24594,0.72037 -0.34182,2.16633 -0.0959,1.44388 -0.14173,3.21394 -0.14173,5.31098 0,1.90945 0.0354,3.41038 0.1063,4.5054 0.0709,1.09529 0.22094,2.06056 0.44812,2.90182 l 2.24684,7.96764 V 9.920889" /><path
         inkscape:connector-curvature="0"
         id="path82"
         style="fill:#ffffff;fill-opacity:1;fill-rule:nonzero;stroke:#ffffff;stroke-width:0.98325002;stroke-linecap:butt;stroke-linejoin:miter;stroke-miterlimit:4;stroke-dasharray:none;stroke-opacity:1"
         d="M 121.34629,144.17655 H 147.6491" /><path
         inkscape:connector-curvature="0"
         id="path84"
         style="fill:#ffffff;fill-opacity:1;fill-rule:nonzero;stroke:#ffffff;stroke-width:0.98325002;stroke-linecap:butt;stroke-linejoin:miter;stroke-miterlimit:4;stroke-dasharray:none;stroke-opacity:1"
         d="m 117.07771,89.779101 h 36.01615" /></g></g></svg>